<svg width="30" height="30" viewBox="0 0 30 30" fill="none" xmlns="http://www.w3.org/2000/svg">
<path fill-rule="evenodd" clip-rule="evenodd" d="M13.8814 0.034291C10.1597 0.278516 6.66665 1.92564 4.05892 4.66588C1.88168 6.95382 0.543643 9.70461 0.075907 12.8545C-0.0579202 13.7561 -0.0330944 13.8964 0.299185 14.1142C0.526808 14.2633 0.853889 14.1941 1.00316 13.9653C1.06235 13.8745 1.16421 13.4421 1.22946 13.0043C1.44901 11.532 1.78913 10.4253 2.45027 9.0316C4.57809 4.54633 8.98205 1.54875 13.9524 1.20274C20.2768 0.762389 26.0642 4.63857 28.07 10.6582C28.9898 13.4187 28.99 16.583 28.0705 19.3473C26.3002 24.669 21.4811 28.4146 15.9051 28.8028C10.9284 29.1494 6.20589 26.8361 3.40724 22.6807C2.30496 21.0442 1.52489 19.0073 1.23194 17.0013C1.13365 16.3281 1.08547 16.1784 0.919212 16.0307C0.606794 15.7531 0.256671 15.8094 0.0718727 16.1667C-0.024483 16.353 -0.0233969 16.4852 0.0807168 17.1838C1.1241 24.1896 6.88124 29.5083 13.9178 29.9672C19.6079 30.3383 24.9101 27.5388 27.8705 22.6007C30.6076 18.0348 30.5991 11.9537 27.8491 7.37516C27.158 6.22456 26.5089 5.39623 25.5223 4.40598C22.4238 1.29615 18.2929 -0.255241 13.8814 0.034291Z" fill="black"/>
<path d="M15.34 12.6973C17.8216 10.2271 18.1247 9.9731 18.7873 9.80746C19.5514 9.61646 20.4571 9.8911 21.0648 10.4981C21.587 11.0197 21.7913 11.528 21.7883 12.2977C21.7852 13.1015 21.4971 13.6016 20.4211 14.6713C19.42 15.6667 19.1899 15.7797 18.8518 15.4417C18.4871 15.0769 18.5595 14.9209 19.5789 13.8733C20.308 13.1241 20.5236 12.8528 20.5922 12.5981C20.7908 11.8605 20.3827 11.1628 19.6349 10.9614C18.9743 10.7835 18.943 10.8074 16.015 13.7251C14.5429 15.192 13.2378 16.4435 13.1149 16.5063C12.7902 16.6719 12.5835 16.5652 11.8644 15.8607C11.1359 15.1471 11.023 15.0804 10.543 15.0804C9.63929 15.0804 9.03726 15.8556 9.26775 16.7224C9.34316 17.006 9.56567 17.2692 10.6883 18.403C11.4206 19.1424 12.1068 19.7928 12.2135 19.8483C12.5428 20.0197 12.8843 20.0589 13.2322 19.9653C13.5166 19.8887 13.8187 19.6248 15.2803 18.1762C16.7931 16.6767 17.0239 16.4768 17.2419 16.4768C17.5627 16.4768 17.7994 16.714 17.7994 17.0353C17.7994 17.2548 17.6049 17.4786 16.112 18.9786C14.1356 20.9641 13.8355 21.1671 12.8789 21.165C11.9447 21.1629 11.6351 20.9681 10.0146 19.3624C9.25255 18.6074 8.54446 17.858 8.44097 17.697C8.1751 17.2837 7.9979 16.5372 8.06129 16.0977C8.08968 15.9009 8.19248 15.5636 8.28969 15.3483C8.68838 14.4657 9.38529 13.9886 10.3584 13.9322C11.2202 13.8823 11.6268 14.0377 12.3028 14.6755L12.8417 15.1839L15.34 12.6973Z" fill="#ED1C24"/>
<path d="M7.86896 11.0402C7.86896 10.8779 7.94414 10.7263 8.10365 10.5668C8.29178 10.3786 8.3803 10.342 8.54974 10.3821C8.83788 10.4502 9.03268 10.7018 9.03268 11.0057C9.03268 11.2443 9.05107 11.2609 9.36163 11.3025C9.73813 11.353 9.96366 11.5743 9.96366 11.8933C9.96366 12.2164 9.79205 12.3853 9.41236 12.4359C9.07721 12.4806 9.0707 12.4871 9.02601 12.8223C8.97349 13.2155 8.80599 13.3736 8.44159 13.3736C8.12521 13.3736 7.86896 13.0738 7.86896 12.7037C7.86896 12.4516 7.85841 12.4426 7.5643 12.4426C7.32752 12.4426 7.22372 12.3971 7.09881 12.2382C7.01037 12.1258 6.93799 11.9659 6.93799 11.8831C6.93799 11.6424 7.35452 11.2789 7.63025 11.2789C7.84507 11.2789 7.86896 11.255 7.86896 11.0402Z" fill="#ED1C24"/>
</svg>
