<svg width="30" height="41" viewBox="0 0 30 41" fill="none" xmlns="http://www.w3.org/2000/svg">
<rect width="30" height="30" fill="black"/>
<path d="M15 41L27.9904 31.25H2.00962L15 41Z" fill="black"/>
<path fill-rule="evenodd" clip-rule="evenodd" d="M13.6621 6.13555C13.6621 6.23103 15.7043 8.55351 16.6519 9.53578L17.613 10.5319L16.6088 11.572C15.6268 12.589 13.7337 14.7361 13.6765 14.8973C13.6592 14.9461 14.2647 14.9785 15.1922 14.9785H16.7365L17.4122 14.1968C17.7837 13.7669 18.7409 12.7639 19.5391 11.9679L20.9905 10.5208L19.5238 9.05906C18.7172 8.25506 17.7599 7.25733 17.3965 6.84182L16.7358 6.08643H15.199C14.3537 6.08643 13.6621 6.10853 13.6621 6.13555Z" fill="#E42326"/>
<path d="M9 24.1295V15.0648V6H10.4676H11.9353V15.0648V24.1295H10.4676H9Z" fill="white"/>
<path d="M16.8807 22.8778C16.2196 21.7738 13.6621 16.7937 13.6621 16.6104C13.6621 16.5669 14.3456 16.5325 15.2087 16.5325H16.7554L17.527 18.0217C18.2444 19.4063 20.4419 23.2426 20.8293 23.7867C20.9233 23.9188 21.0002 24.0507 21.0002 24.08C21.0002 24.1093 20.2362 24.1227 19.3023 24.1098L17.6044 24.0864L16.8807 22.8778Z" fill="white"/>
</svg>
