<svg width="40" height="61" viewBox="0 0 40 61" fill="none" xmlns="http://www.w3.org/2000/svg">
<path fill-rule="evenodd" clip-rule="evenodd" d="M15.5396 0.451583C15.5396 0.769856 22.3467 8.51144 25.5056 11.7857L28.709 15.106L25.3617 18.573C22.0886 21.9632 15.7781 29.1201 15.5876 29.6573C15.5298 29.8199 17.5482 29.9281 20.6397 29.9281H25.7876L28.0397 27.3224C29.2783 25.8893 32.4688 22.546 35.1295 19.8927L39.9675 15.0691L35.0785 10.1966C32.3899 7.51662 29.1988 4.19086 27.9876 2.80583L25.7853 0.287842H20.6624C17.8449 0.287842 15.5396 0.361511 15.5396 0.451583Z" fill="#E42326"/>
<path d="M0 60.4317V30.2158V0H4.89209H9.78417V30.2158V60.4317H4.89209H0Z" fill="white"/>
<path d="M26.2682 56.2589C24.0644 52.579 15.5396 35.9787 15.5396 35.3678C15.5396 35.2227 17.8178 35.1079 20.6949 35.1079H25.8506L28.4224 40.0719C30.8138 44.6875 38.1387 57.4751 39.4302 59.2886C39.7436 59.7289 40 60.1686 40 60.2664C40 60.364 37.4532 60.4086 34.3401 60.3657L28.6806 60.2877L26.2682 56.2589Z" fill="white"/>
</svg>
